<svg xmlns="http://www.w3.org/2000/svg" viewBox="0 0 294.44 596.91"><defs><style>.cls-1{isolation:isolate;}.cls-2{fill:#5f3916;}.cls-3{fill:#443932;}.cls-4{fill:#4d7a39;stroke-width:5px;}.cls-10,.cls-12,.cls-14,.cls-16,.cls-4,.cls-6,.cls-8{stroke:#5d8958;}.cls-10,.cls-11,.cls-12,.cls-13,.cls-14,.cls-15,.cls-16,.cls-4,.cls-5,.cls-6,.cls-7,.cls-8,.cls-9{stroke-miterlimit:10;}.cls-5{fill:#456531;stroke:#456531;}.cls-5,.cls-6{stroke-width:4.5px;}.cls-6{fill:#558942;}.cls-7{fill:#446531;stroke:#446531;}.cls-7,.cls-8{stroke-width:4px;}.cls-8{fill:#53843f;}.cls-9{fill:#436532;stroke:#436532;}.cls-10,.cls-9{stroke-width:3.4px;}.cls-10{fill:#507f3c;}.cls-11{fill:#426432;stroke:#426432;}.cls-11,.cls-12,.cls-13,.cls-14{stroke-width:3px;}.cls-12{fill:#4d7c3a;}.cls-13{fill:#416432;}.cls-13,.cls-15{stroke:#416432;}.cls-14{fill:#507637;}.cls-15,.cls-27{fill:#406432;}.cls-15{stroke-width:2.9px;}.cls-16{fill:#467436;stroke-width:2px;}.cls-17{fill:#4d6b39;}.cls-18{fill:#f0ea2c;}.cls-19{fill:#ef9c20;}.cls-20{fill:#fff;}.cls-21{fill:#fbfdfb;}.cls-22{fill:#f6ec75;}.cls-23{fill:#d8d069;}.cls-24{fill:#f6ef76;}.cls-25{fill:#f9f9fa;}.cls-26{fill:#efeee6;}.cls-27{mix-blend-mode:multiply;opacity:0.5;}.cls-28{fill:#4d5daa;}.cls-29{fill:#3e4d85;}.cls-30{fill:#a3578d;}.cls-31{fill:#804170;}.cls-32{fill:#cb9866;}.cls-33{fill:#af6e31;}.cls-34{fill:#d1cc7f;}.cls-35{fill:#aca550;}.cls-36{fill:#e53f4b;}.cls-37{fill:#942b37;}.cls-38{fill:#a566aa;}.cls-39{fill:#592261;}.cls-40{fill:#6a3687;}.cls-41{fill:#c6487b;}.cls-42{fill:#992f60;}.cls-43{fill:#c9c95d;}.cls-44{fill:#8d4620;}.cls-45{fill:#b27044;}.cls-46{fill:#e25534;}.cls-47{fill:#a03a23;}.cls-48{fill:#9f3923;}.cls-49{fill:#5664ae;}.cls-50{fill:#272f69;}.cls-51{fill:#2e4e73;}.cls-52{fill:#e2da42;}.cls-53{fill:#c6b62f;}</style></defs><g class="cls-1"><g id="Layer_1" data-name="Layer 1"><rect class="cls-2" x="123.76" y="463.42" width="51.98" height="88.71"/><path class="cls-3" d="M127.37,605.74a209.8,209.8,0,0,0,52-.41v-51.1h-52Z" transform="translate(-3.61 -87.81)"/><path class="cls-4" d="M149.71,365.14C114,458.55,75.09,470.84,7.17,537.11c14.12,14.12,40,26.68,59.76,35.17,58.89,25.34,117.85,22.84,176.85-1.68,16.37-6.79,39-24.45,50.83-36.31C239.9,473.5,194.64,459.55,149.71,365.14Z" transform="translate(-3.61 -87.81)"/><path class="cls-5" d="M254.15,494.54C216.66,461,183.1,435.29,149.71,365.14,123.05,434.93,94.56,459.44,53.54,495c10.39,9.25,20.68,17.06,32.69,21.3,38.66,13.68,84.62,9.74,124.8-2.79A221.69,221.69,0,0,0,254.15,494.54Z" transform="translate(-3.61 -87.81)"/><path class="cls-6" d="M149.71,305.88C118,387.87,80.82,410.4,32.58,454.67c18.64,16.91,33.81,33.64,53.65,40.65,38.66,13.68,84.62,9.74,124.8-2.79,20.27-6.32,40.66-16.41,60.85-30C226.29,411.05,187.15,385.89,149.71,305.88Z" transform="translate(-3.61 -87.81)"/><path class="cls-7" d="M149.71,305.88c-21.84,56.44-46.26,84.7-75.09,111.28,15.37,7.3,33,13.76,43.23,15.93,40.14,8.47,45.71,8.14,81,3.39,7.82-1.06,22.22-6.27,36.51-12.44C204.7,392.87,176.77,363.69,149.71,305.88Z" transform="translate(-3.61 -87.81)"/><path class="cls-8" d="M149.71,255.66c-26.44,69.48-58.3,96.55-98.49,134.06,14.68,11.3,50.13,25.89,66.63,29.37,40.14,8.47,45.71,8.15,81,3.39,15.89-2.15,58.95-21.46,73.07-31.06C229,350.2,180.91,323.47,149.71,255.66Z" transform="translate(-3.61 -87.81)"/><path class="cls-9" d="M149.71,255.66c-19.27,50.63-41.41,78.74-67.56,104.78a101,101,0,0,0,22.15,6.19c32.06,4.59,65.21-1.14,97.13-6.78,5.73-1,14.44-4.65,23.67-9.44C196.9,326,169.81,299.33,149.71,255.66Z" transform="translate(-3.61 -87.81)"/><path class="cls-10" d="M149.71,213.1c-22,58.88-53.7,87.21-87.2,119,10.17,9.06,29.2,15.73,41.79,17.53,32.06,4.59,65.21-1.14,97.13-6.78,9.6-1.69,27.59-10.75,42.35-20.33C198.81,275.53,175.66,265.74,149.71,213.1Z" transform="translate(-3.61 -87.81)"/><path class="cls-11" d="M210,289.49c-24.66-23.05-41.77-38.79-60.3-76.39C136,249.81,118.5,274.63,99.16,295.83c12.79,3.54,27.42,5.28,40.72,5.64a186.16,186.16,0,0,0,66.22-10.54C207.45,290.45,208.75,290,210,289.49Z" transform="translate(-3.61 -87.81)"/><path class="cls-12" d="M149.71,177C131.35,226.93,106.93,250.6,79,277.55c15.12,9.28,39.68,13.35,60.86,13.92a186.16,186.16,0,0,0,66.22-10.54c14.91-5.22,24.8-11.57,22.62-11.08-8.84-5.65-16.77-13.4-23.34-19.61C183.46,229.51,166.39,214.51,149.71,177Z" transform="translate(-3.61 -87.81)"/><path class="cls-13" d="M149.71,177c-12.13,33-26.91,54.49-43.59,73.07,32.23,6.08,71.66,5.36,95.28-3.62C181.36,227.58,165.36,212.21,149.71,177Z" transform="translate(-3.61 -87.81)"/><path class="cls-14" d="M149.71,146.47c-15.3,42.29-40.22,62.63-63.48,85.46,8.47,6.45,10.35,5.43,15.25,6.45,36.88,7.68,84.76,6.22,107.15-6.73C186.64,205.08,167.77,187.74,149.71,146.47Z" transform="translate(-3.61 -87.81)"/><path class="cls-15" d="M185.43,204.32a230.63,230.63,0,0,1-35.72-57.85c-10.54,29.14-25.66,47.86-41.65,64.16,15.84,3.35,35.27.79,48.76-.95A222,222,0,0,0,185.43,204.32Z" transform="translate(-3.61 -87.81)"/><path class="cls-16" d="M149.71,120.56C137,156.4,117.47,180.07,98.09,199.42c16.82,7.75,42.22,4.39,58.73,2.26,17.5-2.26,25.62-4.48,42-8.93C180.49,170.23,164.76,155.54,149.71,120.56Z" transform="translate(-3.61 -87.81)"/><path class="cls-17" d="M149.81,119.17a263.1,263.1,0,0,1-12.14,23.58c-1.49,2.49-.16,5.6,2.83,6.55a30.93,30.93,0,0,0,20.85-.8,2.89,2.89,0,0,0,1.54-4.22c-1.08-1.74-2.25-3.64-3.34-5.7C156,131.88,153,126,149.81,119.17Z" transform="translate(-3.61 -87.81)"/><path class="cls-18" d="M149.81,117.17a263.1,263.1,0,0,1-12.14,23.58c-1.49,2.49-.16,5.6,2.83,6.55a30.93,30.93,0,0,0,20.85-.8,2.89,2.89,0,0,0,1.54-4.22c-1.08-1.74-2.25-3.64-3.34-5.7C156,129.88,153,124,149.81,117.17Z" transform="translate(-3.61 -87.81)"/><path class="cls-18" d="M158.73,101.46l12.88,2.05a1.64,1.64,0,0,1,.87,2.81l-9.5,9a1.65,1.65,0,0,0-.5,1.44l2,12.92a1.64,1.64,0,0,1-2.41,1.69l-11.46-6.25a1.66,1.66,0,0,0-1.52,0L137.44,131a1.64,1.64,0,0,1-2.35-1.76l2.42-12.85a1.65,1.65,0,0,0-.45-1.46l-9.21-9.25a1.64,1.64,0,0,1,1-2.78l13-1.7a1.65,1.65,0,0,0,1.25-.88l6-11.64a1.64,1.64,0,0,1,2.94,0l5.58,11.79A1.65,1.65,0,0,0,158.73,101.46Z" transform="translate(-3.61 -87.81)"/><path class="cls-19" d="M171.61,103.51l-12.88-2.05a1.65,1.65,0,0,1-1.23-.92l-5.58-11.79a1.63,1.63,0,0,0-1.44-.94h-.09l-.2,0c.07.22,10.36,29.57-6.05,39.78h0l5-2.52a1.63,1.63,0,0,1,1.52,0l11.46,6.25a1.65,1.65,0,0,0,2.41-1.69l-2-12.92a1.64,1.64,0,0,1,.5-1.44l9.5-9A1.64,1.64,0,0,0,171.61,103.51Z" transform="translate(-3.61 -87.81)"/><path class="cls-19" d="M162.89,142.28c-1.08-1.74-2.25-3.64-3.34-5.7-2.13-4-4.05-7.69-5.93-11.48H149.1s4,18.92-4.93,23.09a30.94,30.94,0,0,0,17.18-1.69A2.89,2.89,0,0,0,162.89,142.28Z" transform="translate(-3.61 -87.81)"/><path class="cls-20" d="M162.12,141a3.27,3.27,0,0,1-.77.46,30.93,30.93,0,0,1-20.85.8,5,5,0,0,1-2.63-1.89l-.2.34a4.37,4.37,0,0,0-.33.69,4.9,4.9,0,0,0,3.16,2.86,30.93,30.93,0,0,0,20.85-.8,3.22,3.22,0,0,0,1.51-1.26Z" transform="translate(-3.61 -87.81)"/><circle class="cls-21" cx="146.35" cy="5.32" r="1.52"/><circle class="cls-21" cx="146.5" cy="8.91" r="1.03"/><circle class="cls-21" cx="129.06" cy="18.29" r="1.55"/><circle class="cls-21" cx="135" cy="38.56" r="1.27"/><path class="cls-20" d="M117.85,193.45c3.22,0,3.23-5,0-5s-3.22,5,0,5Z" transform="translate(-3.61 -87.81)"/><path class="cls-22" d="M134.23,191.51" transform="translate(-3.61 -87.81)"/><path class="cls-23" d="M134.23,194c3.22,0,3.22-5,0-5s-3.22,5,0,5Z" transform="translate(-3.61 -87.81)"/><path class="cls-20" d="M151.74,191.75c3.21,0,3.22-5,0-5s-3.23,5,0,5Z" transform="translate(-3.61 -87.81)"/><path class="cls-24" d="M165.29,183.61" transform="translate(-3.61 -87.81)"/><path class="cls-23" d="M165.29,186.11c3.22,0,3.22-5,0-5s-3.22,5,0,5Z" transform="translate(-3.61 -87.81)"/><path class="cls-20" d="M174.89,177.64c3.22,0,3.22-5,0-5s-3.22,5,0,5Z" transform="translate(-3.61 -87.81)"/><path class="cls-23" d="M109.1,220.55c3.22,0,3.22-5,0-5s-3.22,5,0,5Z" transform="translate(-3.61 -87.81)"/><path class="cls-20" d="M123.5,229.87c3.22,0,3.22-5,0-5s-3.22,5,0,5Z" transform="translate(-3.61 -87.81)"/><path class="cls-23" d="M144.11,232.13c3.22,0,3.23-5,0-5s-3.22,5,0,5Z" transform="translate(-3.61 -87.81)"/><path class="cls-20" d="M164.44,235.8c3.22,0,3.22-5,0-5s-3.22,5,0,5Z" transform="translate(-3.61 -87.81)"/><path class="cls-23" d="M180.54,232.13c3.21,0,3.22-5,0-5s-3.23,5,0,5Z" transform="translate(-3.61 -87.81)"/><path class="cls-20" d="M197.2,231.28c3.21,0,3.22-5,0-5s-3.23,5,0,5Z" transform="translate(-3.61 -87.81)"/><path class="cls-23" d="M205.67,262.06c3.21,0,3.22-5,0-5s-3.23,5,0,5Z" transform="translate(-3.61 -87.81)"/><path class="cls-20" d="M190.7,276.74c3.22,0,3.22-5,0-5s-3.22,5,0,5Z" transform="translate(-3.61 -87.81)"/><path class="cls-23" d="M167,279.28c3.22,0,3.23-5,0-5s-3.22,5,0,5Z" transform="translate(-3.61 -87.81)"/><path class="cls-20" d="M148.07,286.06c3.21,0,3.22-5,0-5s-3.23,5,0,5Z" transform="translate(-3.61 -87.81)"/><path class="cls-23" d="M128,282.11c3.22,0,3.22-5,0-5s-3.22,5,0,5Z" transform="translate(-3.61 -87.81)"/><path class="cls-23" d="M106.56,282.39c3.22,0,3.22-5,0-5s-3.22,5,0,5Z" transform="translate(-3.61 -87.81)"/><path class="cls-20" d="M96.11,272.79c3.22,0,3.23-5,0-5s-3.22,5,0,5Z" transform="translate(-3.61 -87.81)"/><path class="cls-23" d="M100.35,312c3.22,0,3.22-5,0-5s-3.22,5,0,5Z" transform="translate(-3.61 -87.81)"/><path class="cls-25" d="M111.64,322.2c3.22,0,3.22-5,0-5s-3.22,5,0,5Z" transform="translate(-3.61 -87.81)"/><path class="cls-23" d="M128.3,325.59c3.22,0,3.22-5,0-5s-3.22,5,0,5Z" transform="translate(-3.61 -87.81)"/><path class="cls-25" d="M144.68,330.39c3.21,0,3.22-5,0-5s-3.22,5,0,5Z" transform="translate(-3.61 -87.81)"/><path class="cls-23" d="M165.85,334.06c3.22,0,3.23-5,0-5s-3.22,5,0,5Z" transform="translate(-3.61 -87.81)"/><path class="cls-25" d="M187.31,331.24c3.22,0,3.23-5,0-5s-3.22,5,0,5Z" transform="translate(-3.61 -87.81)"/><path class="cls-25" d="M209.34,329.82c3.21,0,3.22-5,0-5s-3.23,5,0,5Z" transform="translate(-3.61 -87.81)"/><path class="cls-25" d="M226.28,322.2c3.21,0,3.22-5,0-5s-3.23,5,0,5Z" transform="translate(-3.61 -87.81)"/><path class="cls-23" d="M227.69,365.4c3.22,0,3.22-5,0-5s-3.22,5,0,5Z" transform="translate(-3.61 -87.81)"/><path class="cls-25" d="M211,381.78c3.22,0,3.22-5,0-5s-3.22,5,0,5Z" transform="translate(-3.61 -87.81)"/><path class="cls-23" d="M184.21,393.35c3.21,0,3.22-5,0-5s-3.23,5,0,5Z" transform="translate(-3.61 -87.81)"/><path class="cls-23" d="M157.1,398.72c3.22,0,3.22-5,0-5s-3.22,5,0,5Z" transform="translate(-3.61 -87.81)"/><path class="cls-25" d="M134.23,399.57c3.22,0,3.22-5,0-5s-3.22,5,0,5Z" transform="translate(-3.61 -87.81)"/><path class="cls-23" d="M108,399.28c3.22,0,3.22-5,0-5s-3.22,5,0,5Z" transform="translate(-3.61 -87.81)"/><path class="cls-25" d="M75.5,392.79c3.22,0,3.22-5,0-5s-3.22,5,0,5Z" transform="translate(-3.61 -87.81)"/><path class="cls-23" d="M71.83,432.32c3.22,0,3.22-5,0-5s-3.22,5,0,5Z" transform="translate(-3.61 -87.81)"/><path class="cls-26" d="M86.8,449.54c3.21,0,3.22-5,0-5s-3.23,5,0,5Z" transform="translate(-3.61 -87.81)"/><path class="cls-23" d="M110.23,459.42c3.22,0,3.22-5,0-5s-3.22,5,0,5Z" transform="translate(-3.61 -87.81)"/><path class="cls-26" d="M133.1,467.9c3.22,0,3.22-5,0-5s-3.22,5,0,5Z" transform="translate(-3.61 -87.81)"/><path class="cls-23" d="M160.49,469.87c3.22,0,3.22-5,0-5s-3.22,5,0,5Z" transform="translate(-3.61 -87.81)"/><path class="cls-26" d="M190.42,471c3.22,0,3.22-5,0-5s-3.22,5,0,5Z" transform="translate(-3.61 -87.81)"/><path class="cls-23" d="M217,468.74c3.22,0,3.22-5,0-5s-3.22,5,0,5Z" transform="translate(-3.61 -87.81)"/><path class="cls-26" d="M248.58,460.27c3.22,0,3.23-5,0-5s-3.22,5,0,5Z" transform="translate(-3.61 -87.81)"/><path class="cls-23" d="M249.43,508.84c3.22,0,3.22-5,0-5s-3.22,5,0,5Z" transform="translate(-3.61 -87.81)"/><path class="cls-23" d="M228.25,531.42c3.22,0,3.23-5,0-5s-3.22,5,0,5Z" transform="translate(-3.61 -87.81)"/><path class="cls-26" d="M197.2,546.67c3.21,0,3.22-5,0-5s-3.23,5,0,5Z" transform="translate(-3.61 -87.81)"/><path class="cls-23" d="M160.21,556c3.21,0,3.22-5,0-5s-3.23,5,0,5Z" transform="translate(-3.61 -87.81)"/><path class="cls-23" d="M119,557.4c3.22,0,3.23-5,0-5s-3.22,5,0,5Z" transform="translate(-3.61 -87.81)"/><path class="cls-26" d="M78.89,554.58c3.22,0,3.22-5,0-5s-3.22,5,0,5Z" transform="translate(-3.61 -87.81)"/><path class="cls-23" d="M43.88,548.08c3.22,0,3.22-5,0-5s-3.22,5,0,5Z" transform="translate(-3.61 -87.81)"/><path class="cls-26" d="M23.27,534.25c3.21,0,3.22-5,0-5s-3.23,5,0,5Z" transform="translate(-3.61 -87.81)"/><ellipse class="cls-27" cx="170.86" cy="128.39" rx="10.95" ry="10.57"/><ellipse class="cls-28" cx="169.5" cy="127.07" rx="10.95" ry="10.57"/><path class="cls-29" d="M178,205.42a10.29,10.29,0,0,1,2.84,7.08,10.76,10.76,0,0,1-11,10.57A11.18,11.18,0,0,1,165,222a11.1,11.1,0,0,0,8.11,3.48,10.77,10.77,0,0,0,11-10.56A10.53,10.53,0,0,0,178,205.42Z" transform="translate(-3.61 -87.81)"/><ellipse class="cls-20" cx="169.5" cy="118.77" rx="3.27" ry="1.58"/><ellipse class="cls-20" cx="164.1" cy="120.86" rx="1.26" ry="1.21"/><ellipse class="cls-20" cx="161.18" cy="123.31" rx="0.57" ry="0.55"/><ellipse class="cls-27" cx="201.5" cy="222.47" rx="12.82" ry="12.03"/><ellipse class="cls-28" cx="199.91" cy="220.98" rx="12.82" ry="12.03"/><path class="cls-29" d="M209.2,298a11.54,11.54,0,0,1,3.32,8.05c0,6.65-5.74,12-12.82,12a13.57,13.57,0,0,1-5.68-1.25,13.18,13.18,0,0,0,9.5,4c7.08,0,12.82-5.39,12.82-12A12,12,0,0,0,209.2,298Z" transform="translate(-3.61 -87.81)"/><ellipse class="cls-20" cx="199.91" cy="211.53" rx="3.82" ry="1.79"/><ellipse class="cls-20" cx="193.59" cy="213.9" rx="1.47" ry="1.38"/><ellipse class="cls-20" cx="190.17" cy="216.7" rx="0.67" ry="0.62"/><ellipse class="cls-27" cx="97.34" cy="289.49" rx="15.92" ry="14.8"/><ellipse class="cls-28" cx="95.36" cy="287.65" rx="15.92" ry="14.8"/><path class="cls-29" d="M106,362.21a14.13,14.13,0,0,1,4.13,9.91c0,8.17-7.13,14.79-15.92,14.79a16.84,16.84,0,0,1-7-1.54A16.43,16.43,0,0,0,99,390.25c8.79,0,15.92-6.62,15.92-14.79A14.71,14.71,0,0,0,106,362.21Z" transform="translate(-3.61 -87.81)"/><ellipse class="cls-20" cx="95.36" cy="276.02" rx="4.75" ry="2.21"/><ellipse class="cls-20" cx="87.52" cy="278.95" rx="1.82" ry="1.7"/><ellipse class="cls-20" cx="83.27" cy="282.39" rx="0.83" ry="0.77"/><ellipse class="cls-27" cx="97.34" cy="289.49" rx="15.92" ry="14.8"/><ellipse class="cls-28" cx="95.36" cy="287.65" rx="15.92" ry="14.8"/><path class="cls-29" d="M106,362.21a14.13,14.13,0,0,1,4.13,9.91c0,8.17-7.13,14.79-15.92,14.79a16.84,16.84,0,0,1-7-1.54A16.43,16.43,0,0,0,99,390.25c8.79,0,15.92-6.62,15.92-14.79A14.71,14.71,0,0,0,106,362.21Z" transform="translate(-3.61 -87.81)"/><ellipse class="cls-20" cx="95.36" cy="276.02" rx="4.75" ry="2.21"/><ellipse class="cls-20" cx="87.52" cy="278.95" rx="1.82" ry="1.7"/><ellipse class="cls-20" cx="83.27" cy="282.39" rx="0.83" ry="0.77"/><ellipse class="cls-27" cx="224.43" cy="465.27" rx="17.54" ry="16.21"/><ellipse class="cls-28" cx="222.25" cy="463.26" rx="17.54" ry="16.21"/><path class="cls-29" d="M233.63,536.55a15.47,15.47,0,0,1,4.55,10.86c0,9-7.86,16.21-17.54,16.21a18.71,18.71,0,0,1-7.77-1.69,18.14,18.14,0,0,0,13,5.35c9.68,0,17.54-7.26,17.54-16.21A16.14,16.14,0,0,0,233.63,536.55Z" transform="translate(-3.61 -87.81)"/><ellipse class="cls-20" cx="222.25" cy="450.52" rx="5.23" ry="2.42"/><ellipse class="cls-20" cx="213.61" cy="453.73" rx="2.01" ry="1.86"/><ellipse class="cls-20" cx="208.93" cy="457.49" rx="0.91" ry="0.84"/><circle class="cls-27" cx="132.81" cy="86.23" r="8.05"/><circle class="cls-30" cx="131.81" cy="85.23" r="8.05"/><path class="cls-31" d="M139,165.83a8,8,0,0,1-9.52,12.6,8,8,0,1,0,9.52-12.6Z" transform="translate(-3.61 -87.81)"/><ellipse class="cls-20" cx="131.81" cy="78.9" rx="2.4" ry="1.2"/><circle class="cls-20" cx="127.84" cy="80.49" r="0.92"/><circle class="cls-20" cx="125.69" cy="82.36" r="0.42"/><ellipse class="cls-27" cx="121.14" cy="177.87" rx="11.66" ry="11.1"/><ellipse class="cls-30" cx="119.69" cy="176.49" rx="11.66" ry="11.1"/><path class="cls-31" d="M128.47,254.35a10.78,10.78,0,0,1,3,7.44,11.39,11.39,0,0,1-11.66,11.11,12.17,12.17,0,0,1-5.17-1.16,11.92,11.92,0,0,0,8.65,3.66A11.39,11.39,0,0,0,135,264.3,11.06,11.06,0,0,0,128.47,254.35Z" transform="translate(-3.61 -87.81)"/><ellipse class="cls-20" cx="119.69" cy="167.76" rx="3.48" ry="1.66"/><ellipse class="cls-20" cx="113.94" cy="169.96" rx="1.34" ry="1.27"/><ellipse class="cls-20" cx="110.83" cy="172.54" rx="0.61" ry="0.58"/><ellipse class="cls-27" cx="165.99" cy="322.57" rx="8.78" ry="8.35"/><ellipse class="cls-30" cx="164.89" cy="321.53" rx="8.78" ry="8.35"/><path class="cls-31" d="M172.4,401.86a8.08,8.08,0,0,1,2.27,5.6,8.57,8.57,0,0,1-8.78,8.35,9.13,9.13,0,0,1-3.89-.87,9,9,0,0,0,6.51,2.75,8.57,8.57,0,0,0,8.78-8.35A8.31,8.31,0,0,0,172.4,401.86Z" transform="translate(-3.61 -87.81)"/><ellipse class="cls-20" cx="164.89" cy="314.97" rx="2.62" ry="1.25"/><ellipse class="cls-20" cx="160.57" cy="316.62" rx="1.01" ry="0.96"/><ellipse class="cls-20" cx="158.22" cy="318.56" rx="0.46" ry="0.43"/><ellipse class="cls-27" cx="268.81" cy="440.13" rx="8.78" ry="8.35"/><ellipse class="cls-30" cx="267.72" cy="439.09" rx="8.78" ry="8.35"/><path class="cls-31" d="M275.22,519.42a8.09,8.09,0,0,1,2.28,5.6,8.58,8.58,0,0,1-8.79,8.35,9.12,9.12,0,0,1-3.88-.87,8.93,8.93,0,0,0,6.5,2.76,8.58,8.58,0,0,0,8.79-8.36A8.33,8.33,0,0,0,275.22,519.42Z" transform="translate(-3.61 -87.81)"/><ellipse class="cls-20" cx="267.72" cy="432.53" rx="2.62" ry="1.25"/><ellipse class="cls-20" cx="263.39" cy="434.18" rx="1.01" ry="0.96"/><ellipse class="cls-20" cx="261.05" cy="436.12" rx="0.46" ry="0.43"/><ellipse class="cls-27" cx="154.29" cy="399.31" rx="12.99" ry="12.66"/><ellipse class="cls-30" cx="152.68" cy="397.74" rx="12.99" ry="12.66"/><path class="cls-31" d="M162,474.21a12.4,12.4,0,0,1,3.37,8.48,12.83,12.83,0,0,1-13,12.66,13.16,13.16,0,0,1-5.75-1.32,13.09,13.09,0,0,0,9.62,4.18,12.83,12.83,0,0,0,13-12.66A12.62,12.62,0,0,0,162,474.21Z" transform="translate(-3.61 -87.81)"/><ellipse class="cls-20" cx="152.68" cy="387.79" rx="3.87" ry="1.89"/><ellipse class="cls-20" cx="146.28" cy="390.29" rx="1.49" ry="1.45"/><ellipse class="cls-20" cx="142.82" cy="393.24" rx="0.67" ry="0.66"/><ellipse class="cls-27" cx="226.2" cy="359.14" rx="15.77" ry="15.4"/><ellipse class="cls-32" cx="224.24" cy="357.23" rx="15.77" ry="15.4"/><path class="cls-33" d="M234.83,431.24a15.1,15.1,0,0,1,4.09,10.32A15.58,15.58,0,0,1,223.15,457a16,16,0,0,1-7-1.6,15.91,15.91,0,0,0,11.69,5.08A15.6,15.6,0,0,0,243.63,445,15.36,15.36,0,0,0,234.83,431.24Z" transform="translate(-3.61 -87.81)"/><ellipse class="cls-20" cx="224.24" cy="345.12" rx="4.7" ry="2.3"/><ellipse class="cls-20" cx="216.46" cy="348.17" rx="1.81" ry="1.76"/><ellipse class="cls-20" cx="212.26" cy="351.75" rx="0.82" ry="0.8"/><ellipse class="cls-27" cx="166.77" cy="288.39" rx="12.58" ry="11.94"/><ellipse class="cls-32" cx="165.2" cy="286.91" rx="12.58" ry="11.94"/><path class="cls-33" d="M174.39,364a11.56,11.56,0,0,1,3.26,8c0,6.6-5.64,11.94-12.58,11.94a13.06,13.06,0,0,1-5.57-1.24,12.85,12.85,0,0,0,9.32,3.94c7,0,12.58-5.35,12.58-11.94A11.89,11.89,0,0,0,174.39,364Z" transform="translate(-3.61 -87.81)"/><ellipse class="cls-20" cx="165.2" cy="277.52" rx="3.75" ry="1.78"/><ellipse class="cls-20" cx="159.01" cy="279.88" rx="1.44" ry="1.37"/><ellipse class="cls-20" cx="155.65" cy="282.66" rx="0.65" ry="0.62"/><ellipse class="cls-27" cx="128.03" cy="443.48" rx="9.63" ry="9.03"/><ellipse class="cls-32" cx="126.83" cy="442.35" rx="9.63" ry="9.03"/><path class="cls-33" d="M134.71,522.08a8.7,8.7,0,0,1,2.49,6c0,5-4.31,9-9.63,9a10.07,10.07,0,0,1-4.26-.94,9.86,9.86,0,0,0,7.13,3c5.32,0,9.63-4,9.63-9A9,9,0,0,0,134.71,522.08Z" transform="translate(-3.61 -87.81)"/><ellipse class="cls-20" cx="126.83" cy="435.26" rx="2.87" ry="1.35"/><ellipse class="cls-20" cx="122.09" cy="437.05" rx="1.1" ry="1.03"/><ellipse class="cls-20" cx="119.52" cy="439.14" rx="0.5" ry="0.47"/><ellipse class="cls-27" cx="175.01" cy="179.09" rx="8.59" ry="8.12"/><ellipse class="cls-34" cx="173.94" cy="178.08" rx="8.59" ry="8.12"/><path class="cls-35" d="M181.36,258.62a7.87,7.87,0,0,1,2.22,5.44,8.36,8.36,0,0,1-8.58,8.12,8.94,8.94,0,0,1-3.81-.85,8.81,8.81,0,0,0,6.37,2.68,8.36,8.36,0,0,0,8.58-8.12A8.08,8.08,0,0,0,181.36,258.62Z" transform="translate(-3.61 -87.81)"/><ellipse class="cls-20" cx="173.94" cy="171.7" rx="2.56" ry="1.21"/><ellipse class="cls-20" cx="169.71" cy="173.3" rx="0.98" ry="0.93"/><ellipse class="cls-20" cx="167.42" cy="175.19" rx="0.45" ry="0.42"/><ellipse class="cls-27" cx="94.05" cy="242.66" rx="13.22" ry="13.32"/><ellipse class="cls-34" cx="92.41" cy="241.01" rx="13.22" ry="13.32"/><path class="cls-35" d="M101.88,316.89a13.33,13.33,0,0,1-9.8,22.24,13.06,13.06,0,0,1-5.85-1.39,13.1,13.1,0,0,0,9.79,4.4,13.33,13.33,0,0,0,5.86-25.25Z" transform="translate(-3.61 -87.81)"/><ellipse class="cls-20" cx="92.41" cy="230.54" rx="3.94" ry="1.99"/><ellipse class="cls-20" cx="85.89" cy="233.17" rx="1.52" ry="1.53"/><ellipse class="cls-20" cx="82.37" cy="236.27" rx="0.69" ry="0.69"/><ellipse class="cls-27" cx="69.01" cy="375.56" rx="16.57" ry="16.27"/><ellipse class="cls-34" cx="66.96" cy="373.53" rx="16.57" ry="16.27"/><path class="cls-35" d="M77.9,446.77a16,16,0,0,1,4.29,10.9,16.41,16.41,0,0,1-16.56,16.27,16.76,16.76,0,0,1-7.33-1.69,16.64,16.64,0,0,0,12.27,5.37,16.43,16.43,0,0,0,16.57-16.28A16.23,16.23,0,0,0,77.9,446.77Z" transform="translate(-3.61 -87.81)"/><ellipse class="cls-20" cx="66.96" cy="360.74" rx="4.94" ry="2.43"/><ellipse class="cls-20" cx="58.79" cy="363.96" rx="1.9" ry="1.86"/><ellipse class="cls-20" cx="54.37" cy="367.74" rx="0.86" ry="0.84"/><ellipse class="cls-27" cx="136.91" cy="484.72" rx="16.57" ry="16.27"/><ellipse class="cls-34" cx="134.86" cy="482.69" rx="16.57" ry="16.27"/><path class="cls-35" d="M145.8,555.93a16,16,0,0,1,4.3,10.9,16.42,16.42,0,0,1-16.57,16.27,16.76,16.76,0,0,1-7.33-1.69,16.64,16.64,0,0,0,12.27,5.37A16.43,16.43,0,0,0,155,570.5,16.23,16.23,0,0,0,145.8,555.93Z" transform="translate(-3.61 -87.81)"/><ellipse class="cls-20" cx="134.86" cy="469.9" rx="4.94" ry="2.43"/><ellipse class="cls-20" cx="126.69" cy="473.12" rx="1.9" ry="1.86"/><ellipse class="cls-20" cx="122.27" cy="476.9" rx="0.86" ry="0.84"/><ellipse class="cls-27" cx="235.15" cy="299.77" rx="16.5" ry="15.72"/><ellipse class="cls-36" cx="233.1" cy="297.82" rx="16.5" ry="15.72"/><path class="cls-37" d="M244,371.54a15.25,15.25,0,0,1,4.27,10.54c0,8.68-7.38,15.72-16.5,15.72a17.06,17.06,0,0,1-7.3-1.64,16.8,16.8,0,0,0,12.22,5.19c9.12,0,16.51-7,16.51-15.72A15.68,15.68,0,0,0,244,371.54Z" transform="translate(-3.61 -87.81)"/><ellipse class="cls-20" cx="233.1" cy="285.46" rx="4.92" ry="2.34"/><ellipse class="cls-20" cx="224.97" cy="288.57" rx="1.89" ry="1.8"/><ellipse class="cls-20" cx="220.57" cy="292.22" rx="0.86" ry="0.82"/><ellipse class="cls-27" cx="135.2" cy="224.22" rx="9.43" ry="9.01"/><ellipse class="cls-36" cx="134.03" cy="223.1" rx="9.43" ry="9.01"/><path class="cls-37" d="M141.82,302.83a8.75,8.75,0,0,1,2.45,6,9.23,9.23,0,0,1-9.44,9,9.66,9.66,0,0,1-4.17-.94,9.56,9.56,0,0,0,7,3,9.23,9.23,0,0,0,9.43-9A9,9,0,0,0,141.82,302.83Z" transform="translate(-3.61 -87.81)"/><ellipse class="cls-20" cx="134.03" cy="216.01" rx="2.81" ry="1.34"/><ellipse class="cls-20" cx="129.38" cy="217.79" rx="1.08" ry="1.03"/><ellipse class="cls-20" cx="126.87" cy="219.89" rx="0.49" ry="0.47"/><ellipse class="cls-27" cx="125.86" cy="357.78" rx="9.43" ry="9.01"/><ellipse class="cls-36" cx="124.69" cy="356.66" rx="9.43" ry="9.01"/><path class="cls-37" d="M132.48,436.39a8.75,8.75,0,0,1,2.45,6,9.23,9.23,0,0,1-9.44,9,9.71,9.71,0,0,1-4.18-.94,9.59,9.59,0,0,0,7,3,9.23,9.23,0,0,0,9.44-9A9,9,0,0,0,132.48,436.39Z" transform="translate(-3.61 -87.81)"/><ellipse class="cls-20" cx="124.69" cy="349.57" rx="2.81" ry="1.34"/><ellipse class="cls-20" cx="120.04" cy="351.35" rx="1.08" ry="1.03"/><ellipse class="cls-20" cx="117.52" cy="353.45" rx="0.49" ry="0.47"/><ellipse class="cls-27" cx="64.41" cy="443.59" rx="20.57" ry="19.54"/><ellipse class="cls-36" cx="61.85" cy="441.16" rx="20.57" ry="19.54"/><path class="cls-37" d="M74.57,511.47a18.9,18.9,0,0,1,5.33,13.09c0,10.79-9.21,19.54-20.57,19.54a21.34,21.34,0,0,1-9.1-2,21,21,0,0,0,15.23,6.45C76.82,548.51,86,539.76,86,529A19.44,19.44,0,0,0,74.57,511.47Z" transform="translate(-3.61 -87.81)"/><ellipse class="cls-20" cx="61.85" cy="425.8" rx="6.13" ry="2.91"/><ellipse class="cls-20" cx="51.71" cy="429.66" rx="2.36" ry="2.24"/><ellipse class="cls-20" cx="46.23" cy="434.21" rx="1.07" ry="1.01"/><rect class="cls-38" x="10.85" y="527.48" width="69.55" height="69.43"/><rect class="cls-39" x="10.85" y="528.58" width="69.55" height="16.39"/><rect class="cls-40" x="8.07" y="527.48" width="75.11" height="12.5"/><rect class="cls-41" x="41.96" y="527.48" width="7.34" height="69.43"/><path class="cls-41" d="M49.62,615.29s20.76-32.92,30.72-23.39S77.11,607,77.11,607Z" transform="translate(-3.61 -87.81)"/><path class="cls-42" d="M49.62,615.29s11.81-14.72,16.19-14.41,4.27,2.66,4.27,2.66.6,2-.09,2.52S49.62,615.29,49.62,615.29Z" transform="translate(-3.61 -87.81)"/><path class="cls-41" d="M49.62,615.29S28.87,582.37,18.91,591.9,22.13,607,22.13,607Z" transform="translate(-3.61 -87.81)"/><path class="cls-42" d="M49.62,615.29s-11.8-14.72-16.18-14.41-4.27,2.66-4.27,2.66-.6,2,.09,2.52S49.62,615.29,49.62,615.29Z" transform="translate(-3.61 -87.81)"/><path class="cls-41" d="M52.91,615.31l-7.34,0v-4.68a4.76,4.76,0,0,1,7.34-.05Z" transform="translate(-3.61 -87.81)"/><rect class="cls-43" x="203.28" y="531.46" width="75.11" height="65.45"/><rect class="cls-44" x="203.28" y="532.49" width="75.11" height="15.45"/><rect class="cls-45" x="200.28" y="531.46" width="81.11" height="11.78"/><rect class="cls-46" x="236.87" y="531.46" width="7.93" height="65.45"/><path class="cls-46" d="M244.86,619.27s22.42-31,33.18-22-3.49,14.26-3.49,14.26Z" transform="translate(-3.61 -87.81)"/><path class="cls-47" d="M244.86,619.27s12.75-13.88,17.48-13.58,4.61,2.5,4.61,2.5.65,1.9-.09,2.38S244.86,619.27,244.86,619.27Z" transform="translate(-3.61 -87.81)"/><path class="cls-46" d="M244.86,619.27s-22.41-31-33.17-22,3.49,14.26,3.49,14.26Z" transform="translate(-3.61 -87.81)"/><path class="cls-48" d="M244.86,619.27s-12.74-13.88-17.47-13.58-4.61,2.5-4.61,2.5-.65,1.9.09,2.38S244.86,619.27,244.86,619.27Z" transform="translate(-3.61 -87.81)"/><path class="cls-46" d="M248.42,619.29l-7.93,0v-4.42a5.15,5.15,0,0,1,7.93,0Z" transform="translate(-3.61 -87.81)"/><rect class="cls-49" x="69.17" y="546.72" width="140.91" height="50.18"/><rect class="cls-50" x="69.17" y="546.72" width="140.91" height="14.95"/><rect class="cls-51" x="66.7" y="546.72" width="145.84" height="9.72"/><rect class="cls-52" x="134.46" y="546.72" width="10.34" height="50.18"/><path class="cls-52" d="M143.24,634.53s29.77-35.87,44-25.48-4.62,16.48-4.62,16.48Z" transform="translate(-3.61 -87.81)"/><path class="cls-53" d="M143.24,634.53s16.93-16,23.21-15.7,6.13,2.9,6.13,2.9.85,2.2-.13,2.75S143.24,634.53,143.24,634.53Z" transform="translate(-3.61 -87.81)"/><path class="cls-52" d="M143.24,634.53s-29.76-35.87-44.05-25.48,4.63,16.48,4.63,16.48Z" transform="translate(-3.61 -87.81)"/><path class="cls-53" d="M143.24,634.53s-16.93-16-23.2-15.7-6.13,2.9-6.13,2.9-.86,2.2.12,2.75S143.24,634.53,143.24,634.53Z" transform="translate(-3.61 -87.81)"/><path class="cls-52" d="M148.41,627.14a6,6,0,0,0-10.34.08v7.27l10.34.08Z" transform="translate(-3.61 -87.81)"/></g></g></svg>